<?xml version="1.0" standalone="no"?>
<!DOCTYPE svg PUBLIC "-//W3C//DTD SVG 20010904//EN"
 "http://www.w3.org/TR/2001/REC-SVG-20010904/DTD/svg10.dtd">
<svg version="1.0" xmlns="http://www.w3.org/2000/svg"
 width="200.000000pt" height="200.000000pt" viewBox="0 0 200.000000 200.000000"
 preserveAspectRatio="xMidYMid meet">

<g transform="translate(0.000000,200.000000) scale(0.100000,-0.100000)"
fill="#000000" stroke="none">
<path d="M1368 1868 c-64 -68 -100 -152 -123 -287 -14 -75 -14 -95 0 -176 49
-294 46 -316 -73 -572 -58 -123 -100 -253 -158 -486 -26 -106 -26 -109 -8
-127 27 -26 156 -78 249 -101 44 -10 136 -24 205 -30 109 -10 140 -9 224 5 55
9 114 23 133 31 l34 14 -6 103 c-14 224 -36 398 -69 533 -61 253 -59 276 45
481 66 131 72 147 81 234 12 116 -1 216 -39 297 -23 48 -33 59 -57 61 l-28 4
7 -60 c4 -33 4 -90 0 -126 l-7 -66 -40 0 c-50 0 -72 -11 -129 -67 l-46 -45 -7
27 c-11 42 -83 113 -127 125 -33 9 -38 14 -35 33 3 12 7 46 11 75 3 28 15 68
26 87 17 29 19 38 9 50 -19 23 -39 18 -72 -17z"/>
<path d="M1066 1695 c-10 -8 -49 -25 -85 -37 -56 -19 -87 -23 -206 -23 -77 0
-151 2 -165 5 -22 4 -25 1 -28 -27 -3 -27 -12 -37 -57 -63 -30 -17 -124 -98
-209 -181 -84 -82 -158 -149 -163 -149 -16 0 -86 -78 -79 -88 16 -26 296 -272
309 -272 14 0 60 47 83 86 11 18 12 18 18 -6 3 -14 24 -178 46 -365 22 -187
45 -350 50 -363 16 -38 47 -42 189 -24 l133 17 34 135 c57 223 93 328 159 471
94 200 109 259 102 383 -3 56 -14 144 -23 196 -10 57 -14 123 -12 167 5 72 5
72 -24 82 -18 6 -28 17 -28 29 0 30 -22 43 -44 27z m2 -57 c-11 -36 -191 -78
-333 -78 -84 0 -115 7 -115 27 0 9 7 13 18 10 85 -24 253 -11 354 27 76 29 81
29 76 14z m-733 -632 c62 -57 68 -66 55 -79 -13 -14 -28 -3 -137 95 -106 96
-121 113 -112 130 11 21 25 10 194 -146z"/>
</g>
</svg>
