<?xml version="1.0" standalone="no"?>
<!DOCTYPE svg PUBLIC "-//W3C//DTD SVG 20010904//EN"
 "http://www.w3.org/TR/2001/REC-SVG-20010904/DTD/svg10.dtd">
<svg version="1.0" xmlns="http://www.w3.org/2000/svg"
 width="338.000000pt" height="434.000000pt" viewBox="0 0 338.000000 434.000000"
 preserveAspectRatio="xMidYMid meet">

<g transform="translate(0.000000,434.000000) scale(0.100000,-0.100000)"
fill="#000000" stroke="none">
<path d="M1451 4315 c-270 -76 -432 -346 -472 -787 l-12 -128 33 -66 c93 -189
389 -364 614 -364 104 0 191 21 291 70 150 72 267 180 321 295 23 48 24 58 24
316 0 295 -6 332 -64 424 -67 103 -164 174 -301 221 -70 24 -98 28 -230 31
-112 2 -164 -1 -204 -12z"/>
<path d="M1057 4283 c-31 -21 -137 -117 -235 -214 -153 -150 -184 -186 -213
-245 l-34 -69 -3 -512 -3 -513 -79 0 -80 0 0 388 -1 387 -85 -88 c-61 -63 -94
-106 -117 -155 l-32 -67 0 -270 c0 -297 8 -360 67 -545 136 -425 485 -753 953
-892 133 -40 299 -49 425 -23 265 54 528 213 605 365 25 49 25 50 25 345 l0
297 -66 -60 c-129 -117 -330 -211 -493 -231 -82 -11 -238 1 -324 24 -276 73
-456 311 -522 690 -17 100 -32 359 -28 504 9 361 108 678 266 856 70 79 62 87
-26 28z"/>
<path d="M2281 4212 c0 -4 13 -29 29 -57 16 -27 37 -62 45 -78 16 -28 30 -81
44 -172 11 -68 12 -1945 1 -2018 -10 -63 -58 -152 -120 -221 -19 -22 -28 -36
-20 -31 13 8 13 7 1 -8 -11 -14 -13 -118 -13 -573 -1 -312 3 -559 8 -564 5 -5
42 -7 82 -3 l72 6 1 51 c1 28 1 122 1 208 0 87 3 158 7 158 5 0 20 -9 34 -20
14 -11 30 -20 36 -20 6 0 26 -7 45 -16 l34 -17 -2 -250 c0 -159 3 -251 9 -252
6 -2 44 -6 85 -8 l75 -5 -3 176 c-1 98 0 191 3 209 6 36 18 37 81 5 75 -38 73
-30 72 -295 -1 -130 2 -240 6 -244 9 -9 144 -8 153 1 4 3 6 98 6 211 -1 113 1
205 3 205 10 0 69 -33 75 -42 3 -5 12 -10 20 -12 8 -1 24 -5 36 -9 21 -8 21
-10 20 -266 l-2 -257 80 4 c44 2 82 6 84 8 2 2 3 675 4 1496 0 1199 -3 1509
-14 1573 -7 44 -16 82 -20 85 -3 3 -17 35 -29 73 -12 37 -26 67 -30 67 -7 0
-37 43 -60 85 -17 30 -337 355 -351 355 -5 0 -6 -12 -4 -27 19 -116 24 -241
23 -693 0 -339 -3 -519 -10 -527 -7 -8 -36 -13 -78 -13 l-67 0 -1 578 c0 317
-3 596 -6 619 -3 23 -17 67 -31 99 -14 31 -25 60 -25 65 0 24 -187 239 -208
239 -4 0 -27 19 -52 42 -44 41 -131 94 -129 80z"/>
<path d="M976 3053 c40 -358 150 -575 340 -671 85 -43 162 -55 306 -50 102 4
135 9 193 32 171 66 337 202 400 329 l35 70 0 169 0 169 -57 -49 c-197 -168
-443 -255 -650 -230 -149 18 -344 105 -484 215 -43 35 -81 63 -84 63 -2 0 -2
-21 1 -47z"/>
<path d="M10 2680 c-5 -163 -1 -2182 4 -2187 9 -9 144 -8 153 1 4 3 6 98 6
211 -1 113 1 205 3 205 10 0 69 -33 75 -42 3 -5 12 -10 20 -12 8 -1 24 -5 36
-9 21 -8 21 -10 20 -266 l-2 -257 80 4 c44 2 81 6 83 7 2 1 4 95 5 209 0 113
5 206 9 206 4 0 8 -4 8 -9 0 -5 10 -12 22 -16 13 -3 44 -15 69 -26 l45 -21 1
-249 c0 -137 2 -251 4 -253 2 -2 34 -6 71 -10 50 -5 70 -3 80 7 11 11 13 55
11 216 -2 110 -1 201 2 201 11 0 89 -43 103 -56 7 -8 22 -14 32 -14 17 0 18
-15 18 -251 0 -138 4 -255 8 -259 5 -5 42 -7 82 -3 l72 6 1 46 c4 271 3 1298
-2 1295 -8 -5 -102 27 -109 37 -3 4 -24 12 -46 18 -23 6 -58 22 -78 36 -20 14
-42 25 -47 25 -15 0 -99 50 -99 59 0 4 -18 15 -40 25 -22 9 -53 31 -69 47 -16
16 -35 29 -41 29 -16 0 -270 256 -270 272 0 7 -12 24 -27 38 -14 14 -35 44
-45 68 -10 23 -22 42 -26 42 -10 0 -52 85 -52 104 0 7 -8 22 -18 34 -10 12
-24 40 -31 64 -8 24 -22 64 -32 90 -11 26 -22 69 -26 95 -3 26 -10 53 -15 60
-5 6 -13 47 -18 90 -5 43 -13 94 -19 113 -9 34 -9 34 -11 -20z"/>
</g>
</svg>
