<?xml version="1.0" standalone="no"?>
<!DOCTYPE svg PUBLIC "-//W3C//DTD SVG 20010904//EN"
 "http://www.w3.org/TR/2001/REC-SVG-20010904/DTD/svg10.dtd">
<svg version="1.0" xmlns="http://www.w3.org/2000/svg"
 width="666.000000pt" height="825.000000pt" viewBox="0 0 666.000000 825.000000"
 preserveAspectRatio="xMidYMid meet">

<g transform="translate(0.000000,825.000000) scale(0.100000,-0.100000)"
fill="#000000" stroke="none">
<path d="M1340 8235 c-153 -43 -260 -157 -260 -277 0 -46 5 -62 25 -86 38 -45
96 -64 183 -60 l75 3 608 -1115 c335 -613 613 -1116 617 -1118 4 -1 34 12 65
29 53 28 56 32 45 52 -30 58 -1153 2157 -1171 2190 l-21 37 41 43 c55 56 76
101 77 162 0 61 -26 104 -80 130 -51 24 -138 28 -204 10z"/>
<path d="M237 6306 c-188 -70 -302 -323 -192 -426 19 -18 40 -25 83 -28 48 -3
66 1 117 27 l60 30 45 -37 c25 -21 340 -277 700 -570 955 -775 1559 -1267
1571 -1279 7 -7 -17 -43 -84 -119 -131 -152 -308 -348 -318 -352 -15 -6 -388
328 -625 561 l-121 118 -21 -73 c-68 -234 -93 -390 -99 -624 l-6 -191 144
-129 c78 -71 158 -143 177 -159 l34 -31 -153 -144 c-85 -79 -155 -144 -156
-145 -6 -4 63 -193 111 -308 l17 -38 27 20 c138 98 771 715 1033 1006 507 565
980 1183 1397 1826 168 258 345 550 339 556 -12 11 -295 63 -345 63 -5 0 -36
-41 -69 -90 -200 -310 -441 -674 -515 -779 l-86 -122 -144 122 c-176 151 -325
287 -485 443 l-123 118 -112 -75 c-124 -82 -275 -202 -292 -230 -10 -16 12
-41 164 -190 176 -172 390 -369 573 -525 l97 -84 -30 -41 c-17 -23 -45 -59
-63 -80 l-32 -38 -130 112 c-199 172 -322 286 -538 499 l-199 195 -40 -45
c-22 -25 -53 -62 -70 -82 l-29 -37 72 -75 c39 -42 160 -158 268 -259 108 -101
216 -203 241 -226 66 -63 -129 95 -1331 1081 l-696 570 18 49 c22 56 25 143 6
178 -30 59 -116 85 -190 57z m2278 -2006 c10 -11 16 -20 13 -20 -3 0 -13 9
-23 20 -10 11 -16 20 -13 20 3 0 13 -9 23 -20z"/>
<path d="M4766 5492 c-795 -1343 -1770 -2531 -2805 -3417 l-160 -138 19 -27
c11 -16 40 -50 64 -76 l43 -48 69 55 c126 102 397 344 569 508 700 667 1420
1548 2018 2469 182 280 420 679 414 694 -3 7 -40 32 -83 55 l-79 41 -69 -116z"/>
<path d="M5080 5202 c-408 -690 -934 -1428 -1453 -2040 -457 -538 -971 -1053
-1462 -1466 -38 -33 -70 -64 -70 -69 0 -16 157 -140 283 -224 62 -42 169 -104
238 -139 l126 -64 32 22 c51 37 284 247 544 492 217 204 589 587 602 620 5 13
225 267 316 366 28 30 70 82 94 114 24 33 59 77 79 99 20 22 86 105 148 186
416 543 776 1077 1091 1618 l71 122 -67 88 c-81 108 -248 281 -365 379 -48 41
-91 74 -95 74 -4 0 -54 -80 -112 -178z"/>
<path d="M5607 3288 c-13 -18 -64 -89 -112 -158 -49 -69 -109 -151 -133 -184
-36 -46 -42 -60 -31 -67 37 -25 651 -329 663 -329 25 0 126 320 150 475 l7 40
-256 128 c-140 70 -257 127 -259 127 -3 0 -16 -15 -29 -32z"/>
<path d="M5132 2641 c-34 -44 -62 -84 -62 -89 0 -13 719 -374 737 -370 13 2
117 167 110 174 -3 3 -719 364 -722 364 -1 0 -29 -36 -63 -79z"/>
<path d="M4712 2407 l-34 -41 29 -26 c100 -86 191 -161 454 -372 162 -131 547
-442 856 -691 308 -250 572 -457 586 -461 50 -12 72 17 47 64 -6 11 -260 225
-566 477 -306 252 -656 541 -778 641 -253 210 -552 452 -557 451 -2 0 -19 -19
-37 -42z"/>
<path d="M4511 1897 c-29 -34 -143 -157 -252 -273 l-198 -212 112 -60 c231
-124 347 -182 367 -182 26 0 182 61 284 112 43 21 80 37 82 35 2 -2 94 -170
205 -373 111 -203 211 -379 222 -392 14 -15 30 -22 47 -20 22 3 25 7 24 43 -1
32 -43 119 -204 418 -111 208 -201 379 -199 381 2 2 31 20 64 41 71 45 248
176 243 180 -8 8 -728 365 -735 365 -4 -1 -32 -29 -62 -63z"/>
</g>
</svg>
